<?xml version="1.0" encoding="UTF-8"?>
<svg version="1.1" xmlns="http://www.w3.org/2000/svg" width="512" height="512">
<path d="M0 0 C1.45108658 0.00273422 1.45108658 0.00273422 2.93148804 0.00552368 C17.26440977 0.05095174 31.21023917 0.55983928 45.3125 3.3125 C46.65803955 3.55395752 46.65803955 3.55395752 48.03076172 3.80029297 C97.3910106 12.7319841 142.33502623 36.62278819 178.3125 71.3125 C178.95509766 71.92786621 179.59769531 72.54323242 180.25976562 73.17724609 C189.43586539 82.00363353 197.78566554 91.04358004 205.3125 101.3125 C205.73724609 101.88178223 206.16199219 102.45106445 206.59960938 103.03759766 C213.11651959 111.7802151 218.92287157 120.83657062 224.3125 130.3125 C224.67698242 130.94430176 225.04146484 131.57610352 225.41699219 132.22705078 C240.34670964 158.31123057 249.82850366 187.64874424 254.3125 217.3125 C254.48982666 218.44365234 254.66715332 219.57480469 254.84985352 220.74023438 C256.46770205 232.10477432 256.66967207 243.34585196 256.625 254.8125 C256.62226578 256.26816376 256.62226578 256.26816376 256.61947632 257.75323486 C256.57298004 272.46332432 256.12419775 286.82980927 253.3125 301.3125 C253.13557617 302.22999023 252.95865234 303.14748047 252.77636719 304.09277344 C251.48874367 310.55312977 249.97877163 316.93992884 248.3125 323.3125 C248.09223145 324.1576416 247.87196289 325.0027832 247.64501953 325.87353516 C238.3975731 360.54642253 220.31221052 396.76624718 195.5078125 422.9765625 C193.62867389 424.97607298 191.83166183 427.01355092 190.0390625 429.08984375 C180.75790885 439.73507199 170.57766138 449.78539868 159.3125 458.3125 C158.77367187 458.72773926 158.23484375 459.14297852 157.6796875 459.57080078 C147.68320531 467.25587664 137.22239551 473.99978061 126.3125 480.3125 C125.63525879 480.70679199 124.95801758 481.10108398 124.26025391 481.50732422 C101.3416244 494.68961173 75.76677437 503.29510918 49.9375 508.625 C49.22682373 508.77243652 48.51614746 508.91987305 47.78393555 509.07177734 C32.14141634 512.05713787 16.50580394 512.6873098 0.625 512.625 C-0.34239105 512.62317719 -1.3097821 512.62135437 -2.30648804 512.61947632 C-16.63940977 512.57404826 -30.58523917 512.06516072 -44.6875 509.3125 C-45.58452637 509.15152832 -46.48155273 508.99055664 -47.40576172 508.82470703 C-91.01061969 500.93444853 -132.14740471 481.24485057 -165.6875 452.3125 C-166.43257813 451.67828125 -167.17765625 451.0440625 -167.9453125 450.390625 C-181.45029833 438.57948485 -194.12168743 425.82889772 -204.6875 411.3125 C-205.54399066 410.16255169 -206.40076433 409.01281411 -207.2578125 407.86328125 C-213.2984414 399.67160474 -218.65755071 391.15604922 -223.6875 382.3125 C-224.05198242 381.68069824 -224.41646484 381.04889648 -224.79199219 380.39794922 C-239.69035669 354.36854716 -249.33397542 324.95139511 -253.6875 295.3125 C-253.86482666 294.10787109 -254.04215332 292.90324219 -254.22485352 291.66210938 C-255.823825 280.00482646 -256.0459053 268.44063902 -256 256.6875 C-255.99817719 255.71761139 -255.99635437 254.74772278 -255.99447632 253.7484436 C-255.94908309 239.39693945 -255.4437347 225.43307082 -252.6875 211.3125 C-252.44604248 209.96696045 -252.44604248 209.96696045 -252.19970703 208.59423828 C-241.38448799 148.82482891 -207.38019424 91.17016439 -158.6875 54.3125 C-158.14867187 53.89726074 -157.60984375 53.48202148 -157.0546875 53.05419922 C-147.05820531 45.36912336 -136.59739551 38.62521939 -125.6875 32.3125 C-125.01025879 31.91820801 -124.33301758 31.52391602 -123.63525391 31.11767578 C-100.7166244 17.93538827 -75.14177437 9.32989082 -49.3125 4 C-48.60182373 3.85256348 -47.89114746 3.70512695 -47.15893555 3.55322266 C-31.51641634 0.56786213 -15.88080394 -0.0623098 0 0 Z " fill="#F64F4F" transform="translate(255.6875,-0.3125)"/>
<path d="M0 0 C0.95003906 0.31710938 1.90007812 0.63421875 2.87890625 0.9609375 C18.81271235 6.81925995 30.33074122 18.5413016 37.69311523 33.68652344 C42.49097502 44.12021088 43.45537515 53.59875556 43 65 C49.64427632 59.47726788 55.68054312 53.38749456 61.72415924 47.22874451 C64.09355964 44.81682185 66.47269633 42.41459806 68.85120773 40.01166534 C73.2644294 35.55287232 77.67342449 31.09007186 82.06640625 26.61132812 C85.13825206 23.48026121 88.22202803 20.36140006 91.31417084 17.25038147 C92.48771207 16.0650797 93.65669901 14.87525101 94.82102203 13.68089294 C96.4413427 12.01977647 98.07638764 10.37464679 99.71582031 8.73242188 C101.10525848 7.32180481 101.10525848 7.32180481 102.52276611 5.88269043 C105 4 105 4 107.19329834 4.09216309 C116.54037425 8.78891006 123.84740361 20.76618237 130 29 C130.43344727 29.5779834 130.86689453 30.1559668 131.31347656 30.75146484 C137.81985642 39.4850096 143.61717418 48.53603082 149 58 C149.36448242 58.63180176 149.72896484 59.26360352 150.10449219 59.91455078 C165.03420964 85.99873057 174.51600366 115.33624424 179 145 C179.17732666 146.13115234 179.35465332 147.26230469 179.53735352 148.42773438 C181.15520205 159.79227432 181.35717207 171.03335196 181.3125 182.5 C181.30976578 183.95566376 181.30976578 183.95566376 181.30697632 185.44073486 C181.26048004 200.15082432 180.81169775 214.51730927 178 229 C177.82307617 229.91749023 177.64615234 230.83498047 177.46386719 231.78027344 C176.17624367 238.24062977 174.66627163 244.62742884 173 251 C172.66959717 252.2677124 172.66959717 252.2677124 172.33251953 253.56103516 C163.0850731 288.23392253 144.99971052 324.45374718 120.1953125 350.6640625 C118.31617389 352.66357298 116.51916183 354.70105092 114.7265625 356.77734375 C105.44540885 367.42257199 95.26516138 377.47289868 84 386 C83.46117187 386.41523926 82.92234375 386.83047852 82.3671875 387.25830078 C72.37070531 394.94337664 61.90989551 401.68728061 51 408 C50.32275879 408.39429199 49.64551758 408.78858398 48.94775391 409.19482422 C26.0291244 422.37711173 0.45427437 430.98260918 -25.375 436.3125 C-26.08567627 436.45993652 -26.79635254 436.60737305 -27.52856445 436.75927734 C-43.17108366 439.74463787 -58.80669606 440.3748098 -74.6875 440.3125 C-75.65489105 440.31067719 -76.6222821 440.30885437 -77.61898804 440.30697632 C-91.95190977 440.26154826 -105.89773917 439.75266072 -120 437 C-120.89702637 436.83902832 -121.79405273 436.67805664 -122.71826172 436.51220703 C-172.80491104 427.44907442 -220.52463461 402.65787757 -256 366 C-254.37582304 361.91482394 -251.45036838 359.16868302 -248.38867188 356.12988281 C-247.81613174 355.55383804 -247.24359161 354.97779327 -246.65370178 354.3842926 C-244.7637119 352.4855142 -242.86651702 350.59412809 -240.96875 348.703125 C-239.65331212 347.38634002 -238.33817127 346.06925826 -237.02331543 344.75189209 C-234.26927355 341.99490316 -231.51164986 339.24156091 -228.75146484 336.49072266 C-225.20690886 332.95758329 -221.67143598 329.41551214 -218.13857269 325.87068558 C-215.4262292 323.15113133 -212.70916037 320.43633859 -209.99061584 317.72298431 C-208.68454488 316.41825086 -207.37996717 315.1120209 -206.07688904 313.8042984 C-204.25981842 311.98217305 -202.43650292 310.16654158 -200.61132812 308.35253906 C-199.79928673 307.53442497 -199.79928673 307.53442497 -198.97084045 306.69978333 C-195.22853132 303 -195.22853132 303 -193 303 C-192.97083496 303.5576001 -192.94166992 304.1152002 -192.91162109 304.68969727 C-191.72294709 325.13447007 -186.8538115 341.21477907 -171.64453125 355.828125 C-163.53174895 362.49091223 -154.33484391 367.04606857 -144 369 C-143.05769531 369.17917969 -142.11539063 369.35835938 -141.14453125 369.54296875 C-123.94031885 372.04345676 -108.14942028 368.4163635 -94.01953125 358.3046875 C-80.51281051 347.99554748 -72.3027154 332.86525819 -70 316 C-68.68626062 297.58611203 -73.81283347 281.60856035 -85.6796875 267.41796875 C-99.55122682 252.96261043 -117.51730401 247.91128739 -137 247 C-131.90961106 240.78248124 -126.27481319 235.15752197 -120.57899666 229.50383186 C-118.81409971 227.75184517 -117.05247393 225.99662561 -115.29161072 224.24058533 C-110.91907972 219.88133546 -106.54110617 215.52756492 -102.16326904 211.17364502 C-98.45596817 207.48618142 -94.75079519 203.79660374 -91.04833794 200.10427666 C-89.32506727 198.38741875 -87.59877912 196.67363665 -85.87232971 194.9599762 C-79.53042748 188.66751751 -79.53042748 188.66751751 -73.54052734 182.04272461 C-68.40033967 176.02718786 -62.67008988 170.54760906 -57.06640625 164.96875 C-55.82065756 163.72486987 -54.57513205 162.48076619 -53.32981873 161.2364502 C-50.07538764 157.98580985 -46.81796319 154.73818572 -43.55987549 151.49121094 C-40.22623132 148.16785548 -36.89546923 144.8416142 -33.56445312 141.515625 C-27.04576354 135.00761191 -20.52390347 128.50278617 -14 122 C-14.86165771 121.92237679 -14.86165771 121.92237679 -15.74072266 121.84318542 C-18.36938097 121.60307142 -20.99715709 121.35434174 -23.625 121.10546875 C-24.52863281 121.02421753 -25.43226563 120.94296631 -26.36328125 120.85925293 C-33.08419455 120.21383676 -38.90993179 119.02120755 -45 116 C-46.43666016 115.30970703 -46.43666016 115.30970703 -47.90234375 114.60546875 C-62.80630855 106.72190436 -73.22920471 93.91795032 -78.9375 78.125 C-83.66071007 61.50293378 -81.70780124 43.96836115 -73.65625 28.8125 C-64.47928562 13.22897557 -50.55623431 3.54368772 -33.5625 -2 C-22.54384958 -4.55938486 -10.57074164 -3.91037961 0 0 Z " fill="#FEE052" transform="translate(331,72)"/>
<path d="M0 0 C1.45108658 0.00273422 1.45108658 0.00273422 2.93148804 0.00552368 C17.26440977 0.05095174 31.21023917 0.55983928 45.3125 3.3125 C46.65803955 3.55395752 46.65803955 3.55395752 48.03076172 3.80029297 C94.3886413 12.18870817 137.744774 33.88788461 172.4375 65.6875 C172.97012451 66.17532959 173.50274902 66.66315918 174.05151367 67.16577148 C177.10235544 70.01848754 179.78592906 72.98806456 182.3125 76.3125 C181.88029144 76.67283829 181.44808289 77.03317657 181.0027771 77.4044342 C174.86310978 82.64127861 169.19908865 88.32316829 163.52721024 94.05319023 C161.75616237 95.8418205 159.98142859 97.62671891 158.20565796 99.41065979 C153.16353653 104.47708755 148.12730747 109.54934433 143.09521484 114.62573242 C140.00387532 117.74377184 136.90774803 120.85698914 133.80857468 123.96724129 C132.63047864 125.15155585 131.45428484 126.33776576 130.28001785 127.525877 C128.64770307 129.17729595 127.00942387 130.8225661 125.36962891 132.46655273 C124.64185745 133.20746658 124.64185745 133.20746658 123.89938354 133.96334839 C120.54039991 137.3125 120.54039991 137.3125 118.3125 137.3125 C118.28671875 136.46429688 118.2609375 135.61609375 118.234375 134.7421875 C117.34858886 116.42251957 111.45832245 99.4979183 98.3125 86.3125 C83.7453179 73.89906794 66.26601487 68.80229338 47.3125 70.3125 C30.65676004 73.17763247 16.10477787 82.05883158 5.92578125 95.453125 C1.20335557 102.68079314 -1.60862621 109.96176968 -3.6875 118.3125 C-3.97753906 119.25029297 -3.97753906 119.25029297 -4.2734375 120.20703125 C-6.03409602 129.15981375 -5.11635936 139.59627687 -2.6875 148.3125 C-2.50445312 149.03308594 -2.32140625 149.75367188 -2.1328125 150.49609375 C2.64280625 167.0338846 14.11529043 178.52534363 28.7578125 186.65625 C36.59213622 190.30652831 43.7712719 191.84738597 52.375 192.5 C53.81649414 192.6227832 53.81649414 192.6227832 55.28710938 192.74804688 C57.62829448 192.94605756 59.96991509 193.13207749 62.3125 193.3125 C56.51111308 200.41762006 49.96860323 206.7826862 43.4765625 213.24609375 C42.2293849 214.49140345 40.98242999 215.73693621 39.73568726 216.98268127 C36.47301895 220.24155366 33.20735749 223.49741018 29.94104004 226.75262451 C26.60078938 230.08259779 23.26341069 233.41544673 19.92578125 236.74804688 C13.39081107 243.27233139 6.85267169 249.79342996 0.3125 256.3125 C-6.62853433 250.63228209 -12.86423906 244.26248244 -19.18359375 237.9140625 C-20.38406287 236.71172532 -21.58475518 235.50961095 -22.78565979 234.30770874 C-25.92616548 231.16340837 -29.06365481 228.01611521 -32.20050049 224.86816406 C-35.40982618 221.64855827 -38.62203005 218.43182679 -41.83398438 215.21484375 C-48.12129102 208.91685365 -54.40541106 202.61569435 -60.6875 196.3125 C-60.8736084 197.93514771 -60.8736084 197.93514771 -61.06347656 199.59057617 C-61.23476914 201.03307089 -61.40633306 202.47553341 -61.578125 203.91796875 C-61.65885254 204.6282019 -61.73958008 205.33843506 -61.82275391 206.07019043 C-63.91358735 223.40917351 -72.53892551 238.36854715 -86.1171875 249.26171875 C-88.25979889 250.73337398 -90.41323504 252.05555874 -92.6875 253.3125 C-93.68716797 253.87517578 -93.68716797 253.87517578 -94.70703125 254.44921875 C-101.93204457 258.28260846 -109.48465594 260.85900943 -117.6875 261.3125 C-119.32525391 261.40917969 -119.32525391 261.40917969 -120.99609375 261.5078125 C-137.18336792 262.01313844 -151.64005777 257.6815811 -163.9375 246.9375 C-165.53759575 245.41323817 -167.12217848 243.87245163 -168.6875 242.3125 C-169.32558594 241.69761719 -169.96367187 241.08273438 -170.62109375 240.44921875 C-181.05614457 229.59583627 -186.20659745 214.34318513 -186.03930664 199.50537109 C-185.39730704 180.68967337 -178.58225089 165.6603354 -165.0625 152.6875 C-154.07331266 143.17571095 -140.88918022 137.90577073 -126.45141602 136.76708984 C-125.37175064 136.68083344 -124.29208527 136.59457703 -123.17970276 136.50570679 C-122.35727585 136.44194855 -121.53484894 136.37819031 -120.6875 136.3125 C-121.42443588 135.58000534 -122.16137177 134.84751068 -122.92063904 134.09281921 C-129.85685086 127.19710896 -136.78780749 120.29615551 -143.71362209 113.39000225 C-147.27462241 109.83944972 -150.83746367 106.2907859 -154.40454102 102.74633789 C-157.84535831 99.32721336 -161.28130094 95.90326019 -164.71388435 92.47587013 C-166.0258969 91.16755975 -167.33967164 89.86101416 -168.65521049 88.55624962 C-170.49412315 86.73180431 -172.32673264 84.90124728 -174.15795898 83.0690918 C-174.70605728 82.52818405 -175.25415558 81.98727631 -175.81886292 81.42997742 C-178.17029191 79.06556183 -179.61728408 77.52314776 -180.6875 74.3125 C-173.7229237 67.10544328 -166.63652563 60.44312108 -158.6875 54.3125 C-158.1414209 53.89000977 -157.5953418 53.46751953 -157.03271484 53.03222656 C-147.04361961 45.35607086 -136.58746773 38.61947495 -125.6875 32.3125 C-125.01025879 31.91820801 -124.33301758 31.52391602 -123.63525391 31.11767578 C-100.7166244 17.93538827 -75.14177437 9.32989082 -49.3125 4 C-48.60182373 3.85256348 -47.89114746 3.70512695 -47.15893555 3.55322266 C-31.51641634 0.56786213 -15.88080394 -0.0623098 0 0 Z " fill="#713774" transform="translate(255.6875,-0.3125)"/>
<path d="M0 0 C0.97453125 0.31710938 1.9490625 0.63421875 2.953125 0.9609375 C18.83253643 6.82218622 30.36934031 18.58855094 37.69311523 33.69091797 C44.16948947 47.80145402 45.38156969 63.33088262 40 78 C39.6596875 78.97453125 39.319375 79.9490625 38.96875 80.953125 C33.36343142 95.72389693 23.09958321 107.80196512 9 115 C6.10119518 116.24662544 3.16698768 117.33735017 0.1875 118.375 C-0.51028564 118.62580322 -1.20807129 118.87660645 -1.92700195 119.13500977 C-9.1938833 121.49857795 -14.85501993 121.41821571 -23 122 C-2.87 142.13 17.26 162.26 38 183 C5.30778478 221.14091775 -44.95172059 244.32031869 -93.375 254.3125 C-94.08567627 254.45993652 -94.79635254 254.60737305 -95.52856445 254.75927734 C-111.17108366 257.74463787 -126.80669606 258.3748098 -142.6875 258.3125 C-143.65489105 258.31067719 -144.6222821 258.30885437 -145.61898804 258.30697632 C-159.95190977 258.26154826 -173.89773917 257.75266072 -188 255 C-188.89702637 254.83902832 -189.79405273 254.67805664 -190.71826172 254.51220703 C-240.80491104 245.44907442 -288.52463461 220.65787757 -324 184 C-322.37582304 179.91482394 -319.45036838 177.16868302 -316.38867188 174.12988281 C-315.52986168 173.26581566 -315.52986168 173.26581566 -314.65370178 172.3842926 C-312.7637119 170.4855142 -310.86651702 168.59412809 -308.96875 166.703125 C-307.65331212 165.38634002 -306.33817127 164.06925826 -305.02331543 162.75189209 C-302.26927355 159.99490316 -299.51164986 157.24156091 -296.75146484 154.49072266 C-293.20690886 150.95758329 -289.67143598 147.41551214 -286.13857269 143.87068558 C-283.4262292 141.15113133 -280.70916037 138.43633859 -277.99061584 135.72298431 C-276.68454488 134.41825086 -275.37996717 133.1120209 -274.07688904 131.8042984 C-272.25981842 129.98217305 -270.43650292 128.16654158 -268.61132812 126.35253906 C-268.06996719 125.80712967 -267.52860626 125.26172028 -266.97084045 124.69978333 C-263.22853132 121 -263.22853132 121 -261 121 C-260.97083496 121.5576001 -260.94166992 122.1152002 -260.91162109 122.68969727 C-259.72294709 143.13447007 -254.8538115 159.21477907 -239.64453125 173.828125 C-231.53174895 180.49091223 -222.33484391 185.04606857 -212 187 C-211.05769531 187.17917969 -210.11539063 187.35835937 -209.14453125 187.54296875 C-191.94031885 190.04345676 -176.14942028 186.4163635 -162.01953125 176.3046875 C-148.51281051 165.99554748 -140.3027154 150.86525819 -138 134 C-136.68626062 115.58611203 -141.81283347 99.60856035 -153.6796875 85.41796875 C-167.55122682 70.96261043 -185.51730401 65.91128739 -205 65 C-199.25911114 57.97694971 -192.80306544 51.6765639 -186.3828125 45.28515625 C-185.15805511 44.06226684 -183.93352047 42.8391543 -182.709198 41.61582947 C-179.50571366 38.41614044 -176.29923634 35.21946752 -173.09210205 32.0234375 C-169.81217384 28.753788 -166.53511874 25.4812616 -163.2578125 22.20898438 C-156.84133235 15.80318881 -150.421683 9.40057951 -144 3 C-139.94397286 4.61623263 -137.23044472 7.50152676 -134.22167969 10.55126953 C-133.65538849 11.11726868 -133.08909729 11.68326782 -132.50564575 12.26641846 C-130.63960762 14.1338472 -128.78074904 16.00825462 -126.921875 17.8828125 C-125.62765446 19.18076411 -124.33299095 20.47827416 -123.03790283 21.77536011 C-119.63374354 25.18714836 -116.23563366 28.60490052 -112.83874512 32.02392578 C-109.37008593 35.5130592 -105.89574417 38.99652387 -102.421875 42.48046875 C-95.60900698 49.31477368 -88.8025158 56.15539203 -82 63 C-81.9087812 61.56264496 -81.9087812 61.56264496 -81.8157196 60.09625244 C-81.7317543 58.8376239 -81.647789 57.57899536 -81.5612793 56.28222656 C-81.47984177 55.03523987 -81.39840424 53.78825317 -81.3144989 52.503479 C-79.91987947 36.96759036 -72.09905796 23.64674526 -61 13 C-43.37952705 -1.55822551 -22.18863579 -7.37622217 0 0 Z " fill="#66B9EC" transform="translate(399,254)"/>
</svg>
